<svg xmlns="http://www.w3.org/2000/svg" xmlns:xlink="http://www.w3.org/1999/xlink" id="Capa_1" x="0px" y="0px" viewBox="0 0 201.8 195.7" style="enable-background:new 0 0 201.8 195.7;" xml:space="preserve"><style type="text/css">	.st0{fill:#FFFFFF;}</style><g>	<g>		<g>			<rect x="7.1" y="51" class="st0" width="28" height="87.6"></rect>			<path class="st0" d="M89.9,107.2c0,4.4-0.8,7.4-2.1,9.1c-1.3,1.7-2,2.5-5,2.6c-2.7,0-3.9-0.7-5-2c-1.1-1.3-1.8-3.7-1.8-7.3V71.2    h32.3V51H76V33.3H51.4V51H39.8v20.1h11.7v41.8c0,8.5,2.9,15.4,8.2,19.9c5.3,4.5,11.6,6.6,21.3,6.6c9.7,0,15.1-1.6,20.7-5.1    c5.6-3.5,8.8-9,9.4-15.9c0.3-2.8,0.4-6.1,0.4-10v-5H89.9V107.2z"></path>			<path class="st0" d="M173.6,103.4v2.1c0,7.3-6.8,13.3-14.3,13.3c-7.6,0-13.7-5.9-13.7-13.3V84.3c0-7.3,6.1-13.3,13.7-13.3    c7.6,0,14.3,5.9,14.3,13.3V86h28.2v-3.3c0-12-2.9-20.7-9.1-25.6c-6.2-4.8-17.7-6.7-33.1-6.7c-15.9,0-27.1,2.8-33.3,9.4    c-6.1,6.6-8.7,18.2-8.8,35.1c0,17.2,2.6,29,8.8,35.5c6.3,6.4,17.8,9.1,34.5,9.1c11.4,0,20.5-1.4,27.2-4.5c6.7-3,11.1-8,12.5-14.4    l0-0.1l1.3-12.8v-4.1H173.6z"></path>			<path class="st0" d="M42,21c0,11.6-9.4,21-21,21C9.4,42,0,32.6,0,21C0,9.4,9.4,0,21,0C32.6,0,42,9.4,42,21z"></path>		</g>	</g>	<g>		<g>			<path class="st0" d="M15,187.9h-3.1l-1.3,5.4H6.8l1.3-5.4H5.4l0.8-3.4h2.7l0.9-3.8H7.2l0.8-3.4h2.6l1.2-5.1h3.8l-1.2,5.1h3.1    l1.2-5.1h3.8l-1.2,5.1h2.5l-0.9,3.4h-2.5l-0.9,3.8H22l-0.8,3.4h-2.4l-1.3,5.4h-3.8L15,187.9z M12.7,184.5h3.1l0.9-3.8h-3.1    L12.7,184.5z"></path>			<path class="st0" d="M29.5,177.5h4.4l-3.8,17.7h-4.4L29.5,177.5z M30.2,172.5c0-0.8,0.3-1.4,0.8-1.8c0.5-0.4,1.2-0.6,1.9-0.6    c0.8,0,1.4,0.2,1.9,0.6c0.5,0.4,0.8,1,0.8,1.8c0,0.8-0.3,1.4-0.8,1.8c-0.5,0.4-1.2,0.7-1.9,0.7c-0.8,0-1.4-0.2-1.9-0.7    C30.5,173.8,30.2,173.2,30.2,172.5z"></path>			<path class="st0" d="M36.2,177.5h2.3l0.7-3.3l4.6-1.3l-1,4.6H47l-0.8,3.6H42l-1.7,8c-0.1,0.6-0.2,1.2-0.2,1.6    c0,0.5,0.1,0.9,0.4,1.1c0.2,0.2,0.6,0.3,1.1,0.3c0.4,0,0.9,0,1.2-0.1c0.4-0.1,0.7-0.3,1.2-0.5v3.3c-0.3,0.1-0.6,0.3-0.9,0.4    c-0.4,0.1-0.8,0.2-1.2,0.3c-0.4,0.1-0.9,0.1-1.3,0.2c-0.4,0-0.9,0.1-1.2,0.1c-1.2,0-2.1-0.3-2.8-0.8c-0.6-0.6-1-1.4-1-2.5    c0-0.2,0-0.5,0.1-0.7c0-0.3,0.1-0.5,0.1-0.8l2.1-9.6h-2.4L36.2,177.5z"></path>			<path class="st0" d="M59.1,181.5c-0.4-0.3-0.9-0.4-1.4-0.5c-0.5-0.1-1-0.1-1.6-0.1c-0.6,0-1.3,0.2-1.9,0.6    c-0.6,0.4-1.1,1-1.6,1.6c-0.5,0.7-0.9,1.5-1.1,2.4c-0.3,0.9-0.4,1.8-0.4,2.8c0,1.2,0.3,2.1,0.8,2.7c0.5,0.6,1.2,0.9,2.1,0.9    c0.7,0,1.4-0.1,2-0.3c0.6-0.2,1.1-0.5,1.6-0.8l0.8,3c-0.8,0.6-1.6,1-2.6,1.4c-1,0.4-2,0.5-3,0.5c-1.1,0-2.1-0.2-2.9-0.5    c-0.8-0.3-1.4-0.8-1.9-1.3c-0.5-0.6-0.9-1.2-1.1-1.9c-0.2-0.7-0.4-1.5-0.4-2.3c0-2,0.3-3.8,0.8-5.3c0.6-1.6,1.3-2.9,2.2-3.9    c0.9-1.1,2-1.9,3.2-2.5c1.2-0.6,2.4-0.9,3.7-0.9c1.1,0,2,0.1,2.6,0.3c0.6,0.2,1.2,0.4,1.8,0.7L59.1,181.5z"></path>			<path class="st0" d="M62.3,177.5h2.6l0.7-3.5l2.8-0.8l-0.9,4.3h4.6l-0.5,2.3h-4.6l-2.2,10.7c0,0.3-0.1,0.5-0.1,0.8    c0,0.2-0.1,0.4-0.1,0.6c0,0.6,0.1,1,0.4,1.2c0.3,0.2,0.6,0.3,1.2,0.3c0.6,0,1.1-0.1,1.6-0.2c0.5-0.1,0.9-0.4,1.4-0.6v2.2    c-0.5,0.3-1.1,0.5-1.9,0.7c-0.8,0.2-1.5,0.3-2.2,0.3c-2.1,0-3.2-1-3.2-2.9c0-0.4,0.1-0.9,0.2-1.5l2.4-11.4h-2.7L62.3,177.5z"></path>			<path class="st0" d="M84.6,193.5c-0.8,0.7-1.8,1.2-2.9,1.6c-1.1,0.4-2.2,0.5-3.4,0.5c-1.9,0-3.3-0.5-4.3-1.6    c-1-1.1-1.4-2.6-1.4-4.5c0-1.9,0.3-3.7,0.8-5.2c0.5-1.5,1.3-2.8,2.1-3.9c0.9-1.1,1.9-1.9,3-2.4c1.1-0.6,2.3-0.8,3.4-0.8    c0.8,0,1.6,0.1,2.2,0.4c0.6,0.2,1.1,0.5,1.5,0.9c0.4,0.4,0.7,0.8,0.9,1.3c0.2,0.5,0.3,1,0.3,1.6c0,1.7-0.8,3-2.4,3.9    c-1.6,1-4,1.4-7.1,1.4c-0.3,0-0.6,0-0.9,0c-0.3,0-0.6,0-1-0.1c-0.1,0.4-0.2,0.9-0.2,1.3c0,0.4-0.1,0.8-0.1,1.1    c0,1.3,0.3,2.4,0.9,3.2c0.6,0.8,1.5,1.2,2.8,1.2c1,0,2-0.2,2.8-0.5c0.9-0.3,1.5-0.7,2-1.1L84.6,193.5z M81.6,179.3    c-1.3,0-2.4,0.4-3.4,1.3c-1,0.9-1.7,2.2-2.2,4c0.9,0,1.8,0,2.8-0.1c1,0,1.8-0.2,2.6-0.4c0.8-0.2,1.4-0.5,2-1    c0.5-0.4,0.8-1,0.8-1.8c0-0.2,0-0.5-0.1-0.7c-0.1-0.2-0.2-0.5-0.4-0.7c-0.2-0.2-0.5-0.4-0.8-0.5    C82.6,179.4,82.1,179.3,81.6,179.3z"></path>			<path class="st0" d="M100.2,193.7c-0.4,0.3-0.8,0.6-1.2,0.8c-0.5,0.2-0.9,0.4-1.4,0.6c-0.5,0.2-1,0.3-1.4,0.4    c-0.5,0.1-0.9,0.1-1.3,0.1c-1.2,0-2.1-0.2-2.8-0.5c-0.7-0.4-1.3-0.8-1.8-1.4c-0.4-0.6-0.7-1.2-0.9-1.8c-0.2-0.7-0.2-1.3-0.2-1.9    c0-2,0.3-3.8,0.8-5.4c0.5-1.6,1.3-2.9,2.2-4.1c0.9-1.1,2-2,3.1-2.5c1.2-0.6,2.4-0.9,3.6-0.9c0.9,0,1.6,0.1,2.2,0.2    c0.6,0.2,1.1,0.4,1.6,0.6l-1,2.2c-0.4-0.2-0.9-0.4-1.5-0.5c-0.6-0.1-1.2-0.2-1.9-0.2c-0.8,0-1.6,0.3-2.4,0.8    c-0.8,0.5-1.4,1.3-2,2.1c-0.6,0.9-1.1,1.9-1.4,3c-0.4,1.1-0.5,2.3-0.5,3.5c0,1.5,0.3,2.7,1,3.4c0.6,0.7,1.5,1.1,2.6,1.1    c0.7,0,1.5-0.2,2.2-0.5c0.8-0.3,1.4-0.6,1.9-1L100.2,193.7z"></path>			<path class="st0" d="M102.9,189.7c0-1.9,0.2-3.6,0.7-5.1c0.5-1.5,1.1-2.9,2-4c0.8-1.1,1.8-2,3-2.6c1.1-0.6,2.3-0.9,3.6-0.9    c1,0,1.8,0.2,2.5,0.5c0.7,0.3,1.3,0.8,1.7,1.3c0.4,0.6,0.7,1.2,0.9,1.9c0.2,0.7,0.3,1.5,0.3,2.2c0,1.8-0.2,3.4-0.7,5    c-0.5,1.5-1.1,2.9-1.9,4c-0.8,1.1-1.8,2-2.8,2.7c-1.1,0.6-2.3,1-3.5,1c-1.1,0-2-0.2-2.7-0.5c-0.7-0.3-1.3-0.8-1.8-1.4    c-0.5-0.6-0.8-1.2-1-1.9C103,191.1,102.9,190.4,102.9,189.7z M105.7,189c0,1.4,0.3,2.5,0.8,3.2c0.5,0.7,1.3,1.1,2.5,1.1    c0.8,0,1.5-0.3,2.2-0.8c0.7-0.6,1.3-1.3,1.8-2.2c0.5-0.9,1-2,1.3-3.2c0.3-1.2,0.5-2.5,0.5-3.8c0-1.2-0.2-2.2-0.7-2.8    c-0.4-0.7-1.3-1-2.5-1c-0.8,0-1.5,0.3-2.2,0.8c-0.7,0.5-1.3,1.2-1.9,2.1c-0.6,0.9-1,1.9-1.3,3.1    C105.8,186.5,105.7,187.8,105.7,189z"></path>			<path class="st0" d="M130.4,195.2l2.4-11.2c0.1-0.4,0.2-0.8,0.2-1.3c0.1-0.4,0.1-0.8,0.1-1.1c0-0.7-0.2-1.2-0.5-1.7    c-0.3-0.4-0.9-0.6-1.8-0.6c-0.6,0-1.2,0.1-1.8,0.4c-0.6,0.3-1.1,0.6-1.7,1.1c-0.5,0.4-1,0.9-1.4,1.5c-0.4,0.5-0.8,1.1-1,1.6    l-2.3,11.3H120l3.8-17.7h1.8l-0.1,3h0.1c0.3-0.4,0.7-0.8,1.1-1.2c0.4-0.4,0.9-0.8,1.4-1.1c0.5-0.3,1.1-0.6,1.8-0.8    c0.7-0.2,1.4-0.3,2.2-0.3c1.2,0,2.1,0.3,2.8,0.8c0.7,0.6,1,1.6,1,3c0,0.7-0.1,1.6-0.3,2.5l-2.5,11.7H130.4z"></path>			<path class="st0" d="M150.9,193.5c-0.8,0.7-1.8,1.2-2.9,1.6c-1.1,0.4-2.2,0.5-3.4,0.5c-1.9,0-3.3-0.5-4.3-1.6    c-1-1.1-1.4-2.6-1.4-4.5c0-1.9,0.3-3.7,0.8-5.2c0.5-1.5,1.3-2.8,2.1-3.9c0.9-1.1,1.9-1.9,3-2.4c1.1-0.6,2.3-0.8,3.5-0.8    c0.8,0,1.6,0.1,2.2,0.4c0.6,0.2,1.1,0.5,1.5,0.9c0.4,0.4,0.7,0.8,0.9,1.3c0.2,0.5,0.3,1,0.3,1.6c0,1.7-0.8,3-2.4,3.9    c-1.6,1-4,1.4-7.1,1.4c-0.3,0-0.6,0-0.9,0c-0.3,0-0.6,0-1-0.1c-0.1,0.4-0.2,0.9-0.2,1.3c0,0.4-0.1,0.8-0.1,1.1    c0,1.3,0.3,2.4,0.9,3.2c0.6,0.8,1.5,1.2,2.8,1.2c1,0,2-0.2,2.8-0.5c0.9-0.3,1.5-0.7,2-1.1L150.9,193.5z M147.9,179.3    c-1.3,0-2.4,0.4-3.4,1.3c-1,0.9-1.7,2.2-2.2,4c0.9,0,1.8,0,2.8-0.1c1,0,1.8-0.2,2.6-0.4c0.8-0.2,1.4-0.5,2-1    c0.5-0.4,0.8-1,0.8-1.8c0-0.2,0-0.5-0.1-0.7c-0.1-0.2-0.2-0.5-0.4-0.7c-0.2-0.2-0.5-0.4-0.8-0.5    C148.9,179.4,148.5,179.3,147.9,179.3z"></path>			<path class="st0" d="M166.5,193.7c-0.4,0.3-0.8,0.6-1.2,0.8c-0.5,0.2-0.9,0.4-1.4,0.6c-0.5,0.2-1,0.3-1.4,0.4    c-0.5,0.1-0.9,0.1-1.3,0.1c-1.2,0-2.1-0.2-2.8-0.5c-0.7-0.4-1.3-0.8-1.8-1.4c-0.4-0.6-0.7-1.2-0.9-1.8c-0.2-0.7-0.2-1.3-0.2-1.9    c0-2,0.3-3.8,0.8-5.4c0.5-1.6,1.3-2.9,2.2-4.1c0.9-1.1,2-2,3.1-2.5c1.2-0.6,2.4-0.9,3.6-0.9c0.9,0,1.6,0.1,2.2,0.2    c0.6,0.2,1.1,0.4,1.6,0.6l-1,2.2c-0.4-0.2-0.9-0.4-1.5-0.5c-0.6-0.1-1.2-0.2-1.9-0.2c-0.8,0-1.6,0.3-2.4,0.8    c-0.8,0.5-1.4,1.3-2,2.1c-0.6,0.9-1.1,1.9-1.4,3c-0.4,1.1-0.5,2.3-0.5,3.5c0,1.5,0.3,2.7,1,3.4c0.6,0.7,1.5,1.1,2.6,1.1    c0.7,0,1.5-0.2,2.2-0.5c0.8-0.3,1.4-0.6,1.9-1L166.5,193.7z"></path>			<path class="st0" d="M170.9,177.5h2.6l0.7-3.5l2.8-0.8l-0.9,4.3h4.6l-0.5,2.3h-4.6l-2.2,10.7c0,0.3-0.1,0.5-0.1,0.8    c0,0.2-0.1,0.4-0.1,0.6c0,0.6,0.1,1,0.4,1.2c0.3,0.2,0.6,0.3,1.2,0.3c0.6,0,1.1-0.1,1.6-0.2c0.5-0.1,0.9-0.4,1.4-0.6v2.2    c-0.5,0.3-1.1,0.5-1.9,0.7c-0.8,0.2-1.5,0.3-2.2,0.3c-2.1,0-3.2-1-3.2-2.9c0-0.4,0.1-0.9,0.2-1.5l2.4-11.4h-2.7L170.9,177.5z"></path>			<path class="st0" d="M194.1,188.2c-0.2,0.9-0.3,1.8-0.4,2.7c-0.1,0.9-0.1,1.7-0.1,2.5c0,0.4,0,0.7,0,1c0,0.3,0,0.6,0.1,0.9h-1.9    l-0.5-3.1h-0.1c-0.3,0.4-0.6,0.8-1,1.2c-0.4,0.4-0.9,0.8-1.4,1.1c-0.5,0.3-1,0.6-1.6,0.8c-0.6,0.2-1.2,0.3-1.8,0.3    c-2.8,0-4.2-1.8-4.2-5.5c0-1.5,0.2-3,0.6-4.6c0.4-1.6,1-3,1.8-4.2c0.8-1.3,1.9-2.3,3.1-3.1c1.3-0.8,2.8-1.2,4.6-1.2    c0.7,0,1.5,0.1,2.4,0.2c1,0.2,1.8,0.4,2.7,0.6L194.1,188.2z M186.1,193.4c0.6,0,1.1-0.1,1.6-0.4c0.5-0.3,1-0.6,1.5-1    c0.5-0.4,0.9-0.8,1.2-1.3s0.6-0.9,0.8-1.3l2-9.6c-0.7-0.3-1.6-0.5-2.7-0.5c-1.1,0-2,0.3-2.9,1c-0.8,0.6-1.5,1.5-2.1,2.5    c-0.6,1-1,2.2-1.3,3.5c-0.3,1.3-0.4,2.6-0.4,3.9c0,0.9,0.2,1.7,0.5,2.3C184.8,193,185.4,193.4,186.1,193.4z"></path>		</g>	</g></g></svg>